name C:\Users\u0150099\Documents\master_thesis\3dpredictsim\Results\debug\Fal_s1_mtjc3_sc_cspx10_oy2_MTc2_MTPm_k1_d01_MTJm_nl_MG_exp5_table_d01_PF_Natali2010_ls146_ig21.mot
datacolumns 128
datarows 4
range 1.60938472 1.64157241
endheader
time	pelvis_tilt	pelvis_list	pelvis_rotation	pelvis_tx	pelvis_ty	pelvis_tz	hip_flexion_l	hip_adduction_l	hip_rotation_l	hip_flexion_r	hip_adduction_r	hip_rotation_r	knee_angle_l	knee_angle_r	ankle_angle_l	ankle_angle_r	subtalar_angle_l	subtalar_angle_r	mtj_angle_l	mtj_angle_r	mtp_angle_l	mtp_angle_r	lumbar_extension	lumbar_bending	lumbar_rotation	arm_flex_l	arm_add_l	arm_rot_l	arm_flex_r	arm_add_r	arm_rot_r	elbow_flex_l	elbow_flex_r	pro_sup_l	pro_sup_r	glut_med1_l/activation	glut_med2_l/activation	glut_med3_l/activation	glut_min1_l/activation	glut_min2_l/activation	glut_min3_l/activation	semimem_l/activation	semiten_l/activation	bifemlh_l/activation	bifemsh_l/activation	sar_l/activation	add_long_l/activation	add_brev_l/activation	add_mag1_l/activation	add_mag2_l/activation	add_mag3_l/activation	tfl_l/activation	pect_l/activation	grac_l/activation	glut_max1_l/activation	glut_max2_l/activation	glut_max3_l/activation	iliacus_l/activation	psoas_l/activation	quad_fem_l/activation	gem_l/activation	peri_l/activation	rect_fem_l/activation	vas_med_l/activation	vas_int_l/activation	vas_lat_l/activation	med_gas_l/activation	lat_gas_l/activation	soleus_l/activation	tib_post_l/activation	flex_dig_l/activation	flex_hal_l/activation	tib_ant_l/activation	per_brev_l/activation	per_long_l/activation	per_tert_l/activation	ext_dig_l/activation	ext_hal_l/activation	ercspn_l/activation	intobl_l/activation	extobl_l/activation	glut_med1_r/activation	glut_med2_r/activation	glut_med3_r/activation	glut_min1_r/activation	glut_min2_r/activation	glut_min3_r/activation	semimem_r/activation	semiten_r/activation	bifemlh_r/activation	bifemsh_r/activation	sar_r/activation	add_long_r/activation	add_brev_r/activation	add_mag1_r/activation	add_mag2_r/activation	add_mag3_r/activation	tfl_r/activation	pect_r/activation	grac_r/activation	glut_max1_r/activation	glut_max2_r/activation	glut_max3_r/activation	iliacus_r/activation	psoas_r/activation	quad_fem_r/activation	gem_r/activation	peri_r/activation	rect_fem_r/activation	vas_med_r/activation	vas_int_r/activation	vas_lat_r/activation	med_gas_r/activation	lat_gas_r/activation	soleus_r/activation	tib_post_r/activation	flex_dig_r/activation	flex_hal_r/activation	tib_ant_r/activation	per_brev_r/activation	per_long_r/activation	per_tert_r/activation	ext_dig_r/activation	ext_hal_r/activation	ercspn_r/activation	intobl_r/activation	extobl_r/activation	
          1.60938472	         -2.92456167	          2.01472579	         -3.43734138	          2.14048168	          0.90756438	          0.00349632	         31.01351668	          2.96287486	         -5.23228482	        -11.59725346	          1.26207492	          4.11989500	        -16.53202866	        -20.05367839	         10.48183967	          4.73857445	         -0.98299505	         -1.30673616	          2.13449485	          0.30712543	         -1.32213974	         24.06248705	         -4.59718060	         -0.70174743	          1.64027094	         -2.93010941	        -13.48808068	          8.74099820	          4.61639962	        -13.68958734	         19.30012597	         23.27835249	         36.16585308	         86.51662706	         86.51662706	          0.05000093	          0.05005345	          0.05001023	          0.05487817	          0.05024001	          0.05001053	          0.31268401	          0.08190519	          0.08190564	          0.08067525	          0.06879277	          0.05784459	          0.07355224	          0.06240246	          0.05082923	          0.18998834	          0.05000067	          0.05003343	          0.05062902	          0.05000904	          0.05000800	          0.18866509	          0.07168843	          0.08539390	          0.15832598	          0.06448854	          0.05003684	          0.05000019	          0.05000097	          0.05000095	          0.05000052	          0.05851467	          0.09047568	          0.05633940	          0.05000182	          0.05894018	          0.05003185	          0.39486838	          0.05000027	          0.18333493	          0.27511119	          0.61389128	          0.47513751	          0.07033726	          0.10053820	          0.11381734	          0.28132714	          0.05000021	          0.05000008	          0.56657399	          0.15126319	          0.05000216	          0.05000342	          0.05000030	          0.05000022	          0.05000031	          0.05000304	          0.06299318	          0.05000523	          0.05000136	          0.05000581	          0.05001349	          0.42071007	          0.05030899	          0.05000052	          0.05000212	          0.05000122	          0.05000093	          0.16868177	          0.54224424	          0.05000009	          0.05000030	          0.05000017	          0.53759446	          0.20180341	          0.20173189	          0.16704470	          0.44154424	          0.59828172	          0.20058728	          0.41238697	          0.52758870	          0.49278085	          0.05000002	          0.07790753	          0.22552702	          0.05000015	          0.05000008	          0.09360562	          0.05000007	          0.05000016	          0.05000008	
          1.62011395	         -2.92876423	          2.06566489	         -3.80362184	          2.15732472	          0.90627121	          0.00326081	         30.92043307	          3.07961290	         -5.10962497	        -12.67205109	          0.78471143	          3.76208217	        -16.56849916	        -19.71999268	         10.14965278	          3.87305282	         -1.10272599	         -0.25275526	          2.41939906	         -0.67154430	         -1.61067511	         26.30042888	         -4.44538696	         -0.84074122	          1.75267975	         -3.73523555	        -13.46134366	          8.01396131	          4.36019827	        -13.65405604	         19.36863391	         22.70682771	         37.53103931	         86.51662706	         86.51662706	          0.10874900	          0.05000122	          0.05894056	          0.05000055	          0.05000070	          0.05001674	          0.29766025	          0.06948090	          0.06948106	          0.06948090	          0.09088767	          0.07233931	          0.07834140	          0.05294897	          0.05893824	          0.21866269	          0.05001116	          0.05017426	          0.06948099	          0.05536856	          0.05894060	          0.22432285	          0.06862563	          0.07893546	          0.22540926	          0.05478114	          0.05002840	          0.05000005	          0.05000011	          0.05000005	          0.05000008	          0.05894104	          0.10042808	          0.05894101	          0.05942289	          0.05000041	          0.05000089	          0.39835759	          0.05000293	          0.18814922	          0.26730329	          0.61549685	          0.43131869	          0.06657596	          0.10571337	          0.09655194	          0.23865148	          0.05000017	          0.05000006	          0.48062806	          0.12831757	          0.05000029	          0.05000259	          0.05000028	          0.05000023	          0.05000020	          0.05000139	          0.06971719	          0.05001031	          0.05000086	          0.05000508	          0.09028686	          0.35691971	          0.05001367	          0.05000037	          0.05000207	          0.05000119	          0.05000089	          0.14309376	          0.58522271	          0.05000007	          0.05000022	          0.05000009	          0.46209656	          0.19753728	          0.19661798	          0.16401041	          0.41611477	          0.57052653	          0.18285185	          0.34983055	          0.59899966	          0.41803037	          0.05000000	          0.06608947	          0.19131585	          0.05000014	          0.05000007	          0.07940619	          0.05000006	          0.05000007	          0.05000009	
          1.63084318	         -2.93016385	          2.11123568	         -4.15888422	          2.17445861	          0.90493775	          0.00299448	         30.83403428	          3.19469578	         -4.95853878	        -13.65660101	          0.29516315	          3.37560318	        -17.32897164	        -19.53354568	          9.50076518	          2.89245155	         -1.21852841	          0.82591910	          2.61191981	         -1.78201969	         -1.88018459	         28.74851048	         -4.28056931	         -0.97897786	          1.86185423	         -4.58480099	        -13.45020430	          7.47732220	          4.03517254	        -13.61842066	         19.38599499	         22.19852175	         38.89417744	         86.51662706	         86.51662706	          0.09225302	          0.05000136	          0.05000045	          0.05885286	          0.05004006	          0.05000133	          0.25250690	          0.05894107	          0.05894118	          0.05894107	          0.08190481	          0.08190568	          0.06645805	          0.19597881	          0.05000061	          0.25704222	          0.06948020	          0.05007108	          0.05894128	          0.05000081	          0.05000060	          0.28122277	          0.08190529	          0.08190525	          0.32568069	          0.08194593	          0.05000145	          0.08837593	          0.05000037	          0.24837927	          0.05000040	          0.05000003	          0.08519375	          0.05000000	          0.05040939	          0.05000080	          0.05000075	          0.44667036	          0.05894154	          0.18306412	          0.36878444	          0.67892334	          0.57632430	          0.05647684	          0.08967734	          0.08190556	          0.20244942	          0.05000022	          0.05000010	          0.40771953	          0.10885266	          0.05000096	          0.05001122	          0.05000035	          0.05000033	          0.05000064	          0.05000159	          0.08205685	          0.15043516	          0.05000362	          0.05001152	          0.07659736	          0.31476379	          0.05787556	          0.05000056	          0.05000198	          0.05000118	          0.05000106	          0.12138727	          0.52649409	          0.05000008	          0.05000068	          0.05894212	          0.39199941	          0.18871101	          0.18990428	          0.15862523	          0.38502517	          0.52832282	          0.15511447	          0.29676324	          0.52593640	          0.35461774	          0.06840849	          0.05606411	          0.16229431	          0.05000013	          0.05000003	          0.06736073	          0.05000002	          0.05332724	          0.05000007	
          1.64157241	         -2.92940898	          2.15498796	         -4.49690300	          2.19185155	          0.90356328	          0.00269475	         30.68208198	          3.30886688	         -4.76780278	        -14.52432814	         -0.19852743	          2.99493992	        -18.68366761	        -19.54472956	          8.73611722	          1.78643939	         -1.34695567	          1.90991265	          2.79438647	         -2.92393235	         -2.02030557	         31.17623892	         -4.10364567	         -1.11776383	          1.96590261	         -5.46392324	        -13.45158545	          7.11361100	          3.64029276	        -13.59584215	         19.38595358	         21.73699620	         40.27208825	         86.51662706	         86.51662706	          0.25230803	          0.05000030	          0.28660461	          0.05000049	          0.05000038	          0.05000070	          0.21420313	          0.05000007	          0.05000016	          0.05000005	          0.06948055	          0.06948244	          0.23640587	          0.16625510	          0.17509455	          0.31067417	          0.05894080	          0.06801777	          0.05000031	          0.05000061	          0.19016041	          0.36318025	          0.06948083	          0.06948076	          0.27627712	          0.06951584	          0.15785690	          0.07496981	          0.13808926	          0.21564443	          0.11295042	          0.06941556	          0.07227038	          0.06898919	          0.05000019	          0.05894093	          0.05012363	          0.54534563	          0.05000046	          0.22214902	          0.44335348	          0.72466831	          0.52977034	          0.07195714	          0.11381719	          0.06948095	          0.17173902	          0.05894088	          0.05894110	          0.34587081	          0.09234046	          0.05893985	          0.05000251	          0.05007060	          0.06891682	          0.05000040	          0.05187611	          0.11944538	          0.46050802	          0.24658011	          0.12274525	          0.15499371	          0.26701695	          0.05895942	          0.05894900	          0.05894654	          0.05894764	          0.09375495	          0.10297353	          0.57480186	          0.05895167	          0.05894109	          0.05000179	          0.33253532	          0.16008651	          0.16109895	          0.13456516	          0.32661983	          0.44817972	          0.13158449	          0.25174593	          0.44615510	          0.30082431	          0.26267504	          0.13295564	          0.13767522	          0.05000017	          0.05000014	          0.05714252	          0.07386729	          0.05000035	          0.05000018	
